<svg width="800" height="600" xmlns="http://www.w3.org/2000/svg">
 <g>
  <title>Layer 1</title>
  <path id="svg_2" d="m472.77058,268.28714c0.21882,-2.22358 0.34551,-4.46997 0.34551,-6.73916c0,-39.36311 -32.22431,-71.26866 -71.98068,-71.26866c-30.8538,0 -57.10084,19.25964 -67.33937,46.28472c-6.78346,-7.36633 -16.45766,-12.07576 -27.31811,-12.07576c-20.47706,0 -37.07293,16.4317 -37.07293,36.70621c0,2.39463 0.26489,4.73224 0.71405,6.99003c-27.31811,4.45857 -48.2213,27.77767 -48.2213,56.07988c0,31.49505 25.78636,57.01493 57.58455,57.01493l182.83093,0c31.8097,0 57.58455,-25.51988 57.58455,-57.01493c0.01152,-27.94872 -20.32734,-51.09678 -47.12719,-55.97726z" stroke="#000000" fill="#fff"/>
 </g>

</svg>