<svg xmlns="http://www.w3.org/2000/svg" xmlns:xlink="http://www.w3.org/1999/xlink" viewBox="0 0 19 24"><path d="M 16.332 14.4 C 17.807 14.4 19.004 15.609 19.004 17.1 L 19.004 18.186 C 19.004 19.499 18.437 20.746 17.452 21.601 C 15.592 23.214 12.932 24 9.5 24 C 6.068 24 3.411 23.213 1.554 21.6 C 0.57 20.745 0.004 19.5 0.004 18.188 L 0.004 17.099 C 0.004 15.608 1.2 14.4 2.675 14.4 Z M 9.379 0.01 L 9.5 0 C 9.945 0 10.322 0.332 10.382 0.778 L 10.391 0.9 L 10.391 1.8 L 14.547 1.8 C 16.023 1.8 17.219 3.009 17.219 4.5 L 17.219 9.906 C 17.219 11.397 16.023 12.606 14.547 12.606 L 4.453 12.606 C 2.977 12.606 1.781 11.397 1.781 9.906 L 1.781 4.5 C 1.781 3.009 2.977 1.8 4.453 1.8 L 8.609 1.8 L 8.609 0.901 C 8.609 0.451 8.938 0.071 9.379 0.01 L 9.5 0 L 9.379 0.008 Z M 6.828 5.4 C 6.008 5.4 5.344 6.072 5.344 6.9 C 5.344 7.728 6.008 8.4 6.828 8.4 C 7.648 8.4 8.313 7.728 8.313 6.9 C 8.313 6.072 7.648 5.4 6.828 5.4 Z M 12.164 5.4 C 11.632 5.383 11.132 5.654 10.853 6.111 C 10.574 6.569 10.558 7.142 10.811 7.614 C 11.065 8.087 11.549 8.386 12.08 8.399 C 12.898 8.419 13.577 7.767 13.6 6.941 C 13.623 6.115 12.981 5.426 12.164 5.4 Z" fill="#FFF"></path></svg>