<svg xmlns="http://www.w3.org/2000/svg" xmlns:xlink="http://www.w3.org/1999/xlink" viewBox="0 0 23 27"><path d="M 13.856 9.618 C 14.694 9.206 15.76 8.6 16.827 7.769 C 17.052 8.23 17.076 8.632 16.96 8.957 C 16.878 9.185 16.724 9.384 16.52 9.543 C 16.3 9.714 16.024 9.838 15.72 9.906 C 15.143 10.034 14.469 9.959 13.856 9.618 M 14.002 13.838 L 15.11 14.469 C 12.847 15.72 12.231 18.044 11.5 20.307 C 10.769 18.044 10.153 15.72 7.89 14.469 L 8.998 13.838 C 9.219 13.756 9.36 13.543 9.349 13.312 C 9.247 11.192 9.828 10.255 10.61 9.667 C 10.891 9.456 11.198 9.35 11.5 9.35 C 11.802 9.35 12.109 9.456 12.39 9.667 C 13.172 10.255 13.753 11.192 13.651 13.312 C 13.64 13.543 13.782 13.756 14.002 13.838 Z M 11.5 0 C 12.782 0.034 14.066 0.279 15.181 0.757 C 15.954 1.087 16.674 1.525 17.326 2.047 C 17.621 2.283 17.864 2.511 18.131 2.774 C 18.852 2.798 19.905 2.009 20.394 1.27 C 19.552 3.991 15.712 7.204 13.053 8.433 C 13.052 8.432 13.051 8.432 13.051 8.431 C 12.573 8.072 12.037 7.892 11.5 7.892 C 10.963 7.892 10.427 8.072 9.95 8.431 C 9.949 8.432 9.948 8.433 9.947 8.433 C 7.288 7.204 3.448 3.991 2.606 1.27 C 3.095 2.009 4.148 2.798 4.869 2.774 C 5.136 2.511 5.379 2.283 5.674 2.047 C 6.326 1.525 7.046 1.087 7.819 0.757 C 8.934 0.279 10.218 0.034 11.5 0 M 9.144 9.618 C 8.306 9.206 7.24 8.6 6.173 7.769 C 5.948 8.23 5.924 8.632 6.04 8.957 C 6.122 9.185 6.277 9.384 6.48 9.543 C 6.7 9.714 6.976 9.838 7.28 9.906 C 7.857 10.034 8.531 9.959 9.144 9.618" fill="rgb(0, 0, 0)"></path><path d="M 17.995 6.751 C 18.583 6.167 19.1 5.52 19.517 4.943 L 19.728 5.335 C 20.408 6.677 20.762 8.015 20.762 9.519 L 20.761 11.907 L 20.773 13.145 C 20.823 16.184 21.489 19.259 23 22.072 L 19.84 19.559 L 17.603 23.138 L 15.254 20.957 L 11.5 26.964 L 7.746 20.957 L 5.397 23.138 L 3.16 19.56 L 0 22.073 C 1.511 19.259 2.177 16.184 2.227 13.145 L 2.239 11.907 L 2.238 9.519 C 2.238 8.015 2.592 6.677 3.272 5.335 L 3.483 4.943 C 3.9 5.52 4.417 6.167 5.005 6.752 L 4.821 7.127 C 4.465 7.857 4.347 8.673 4.624 9.449 C 4.803 9.949 5.13 10.378 5.551 10.705 C 5.96 11.023 6.444 11.237 6.951 11.349 C 7.281 11.423 7.617 11.453 7.951 11.443 C 7.873 11.878 7.839 12.33 7.837 12.791 L 4.856 14.489 L 7.156 15.76 C 7.34 15.862 7.515 15.978 7.679 16.108 C 9.576 17.788 10.716 22.755 11.5 25.182 C 12.284 22.755 13.424 17.788 15.321 16.108 C 15.485 15.978 15.66 15.862 15.844 15.76 L 18.145 14.489 L 15.163 12.791 C 15.161 12.33 15.127 11.878 15.049 11.443 C 15.383 11.453 15.719 11.423 16.05 11.349 C 16.556 11.237 17.04 11.023 17.449 10.705 C 17.87 10.378 18.197 9.949 18.376 9.449 C 18.653 8.673 18.535 7.857 18.179 7.127 L 17.995 6.752 Z" fill="#FFF"></path></svg>