<svg width="800" height="600" xmlns="http://www.w3.org/2000/svg">
 <g>
  <title>Layer 1</title>
  <path stroke="#000000" id="svg_2" d="m280.23897,264.28714c-0.2291,-2.22358 -0.36174,-4.46997 -0.36174,-6.73916c0,-39.36311 33.7382,-71.26866 75.36232,-71.26866c32.3033,0 59.78342,19.25964 70.50296,46.28472c7.10215,-7.36633 17.23084,-12.07576 28.60151,-12.07576c21.43907,0 38.81461,16.4317 38.81461,36.70621c0,2.39463 -0.27733,4.73224 -0.74759,6.99003c28.60151,4.45857 50.48673,27.77767 50.48673,56.07988c0,31.49505 -26.9978,57.01493 -60.28986,57.01493l-191.42029,0c-33.30412,0 -60.28986,-25.51988 -60.28986,-57.01493c-0.01206,-27.94872 21.28232,-51.09678 49.34122,-55.97726z" fill="#fff"/>
 </g>

</svg>