<?xml version="1.0" encoding="utf-8" ?>
<svg baseProfile="full" height="680" version="1.1" width="711" xmlns="http://www.w3.org/2000/svg" xmlns:ev="http://www.w3.org/2001/xml-events" xmlns:xlink="http://www.w3.org/1999/xlink"><defs /><circle cx="417.0" cy="650.0" fill="black" r="2.2361679077148438" /><circle cx="309.0" cy="643.0" fill="black" r="3.6056511402130127" /><circle cx="449.5" cy="641.5" fill="black" r="2.549609661102295" /><circle cx="483.29998779296875" cy="632.2999877929688" fill="black" r="1.838593602180481" /><circle cx="342.4076843261719" cy="634.1769409179688" fill="black" r="5.390742301940918" /><circle cx="234.875" cy="628.0" fill="black" r="2.1250998973846436" /><circle cx="375.1666564941406" cy="625.5" fill="black" r="6.346587181091309" /><circle cx="267.3636474609375" cy="618.9091186523438" fill="black" r="5.473557472229004" /><circle cx="408.4285583496094" cy="616.5714111328125" fill="black" r="6.617950439453125" /><circle cx="300.5" cy="610.0" fill="black" r="6.946321964263916" /><circle cx="441.20587158203125" cy="607.7352905273438" fill="black" r="6.7385454177856445" /><circle cx="192.5" cy="603.5" fill="black" r="2.549609661102295" /><circle cx="333.3636474609375" cy="601.3636474609375" fill="black" r="8.095588684082031" /><circle cx="474.25" cy="599.0" fill="black" r="6.600289344787598" /><circle cx="225.43548583984375" cy="594.8225708007812" fill="black" r="5.855489253997803" /><circle cx="507.4230651855469" cy="590.2948608398438" fill="black" r="5.888745307922363" /><circle cx="366.38775634765625" cy="592.5765380859375" fill="black" r="8.755453109741211" /><circle cx="258.5" cy="586.0" fill="black" r="7.632268905639648" /><circle cx="540.2346801757812" cy="581.5408325195312" fill="black" r="4.7960124015808105" /><circle cx="399.46429443359375" cy="583.6785888671875" fill="black" r="9.041543960571289" /><circle cx="573.2999877929688" cy="572.2999877929688" fill="black" r="1.838593602180481" /><circle cx="291.5" cy="577.2142944335938" fill="black" r="9.134588241577148" /><circle cx="432.4473571777344" cy="574.5789184570312" fill="black" r="9.211586952209473" /><circle cx="183.4629669189453" cy="570.611083984375" fill="black" r="5.636825084686279" /><circle cx="324.65789794921875" cy="568.1842041015625" fill="black" r="10.09144115447998" /><circle cx="465.5" cy="566.0" fill="black" r="9.12424373626709" /><circle cx="216.70755004882812" cy="561.8018798828125" fill="black" r="7.915463447570801" /><circle cx="498.5" cy="557.0" fill="black" r="8.732224464416504" /><circle cx="357.5466003417969" cy="559.4713134765625" fill="black" r="10.754986763000488" /><circle cx="249.686279296875" cy="552.9019775390625" fill="black" r="9.522541046142578" /><circle cx="141.93478393554688" cy="546.8043212890625" fill="black" r="4.32883882522583" /><circle cx="531.4302368164062" cy="548.2907104492188" fill="black" r="7.730439186096191" /><circle cx="390.5454406738281" cy="550.4545288085938" fill="black" r="11.0394926071167" /><circle cx="564.5" cy="539.5" fill="black" r="6.041623115539551" /><circle cx="282.69793701171875" cy="544.2064819335938" fill="black" r="10.727442741394043" /><circle cx="423.63043212890625" cy="541.6304321289062" fill="black" r="11.151784896850586" /><circle cx="175.0" cy="538.0" fill="black" r="7.280210018157959" /><circle cx="597.5" cy="530.5" fill="black" r="4.301262855529785" /><circle cx="315.68182373046875" cy="535.3181762695312" fill="black" r="11.763777732849121" /><circle cx="456.4907531738281" cy="532.9074096679688" fill="black" r="11.194887161254883" /><circle cx="207.8913116455078" cy="528.8912963867188" fill="black" r="9.349690437316895" /><circle cx="489.56451416015625" cy="524.1558837890625" fill="black" r="10.469670295715332" /><circle cx="348.7314758300781" cy="526.2222290039062" fill="black" r="12.46825885772705" /><circle cx="240.9705810546875" cy="519.9705810546875" fill="black" r="10.808670997619629" /><circle cx="133.0" cy="513.5999755859375" fill="black" r="5.946545600891113" /><circle cx="522.401611328125" cy="515.4672241210938" fill="black" r="9.72010326385498" /><circle cx="381.622314453125" cy="517.4352416992188" fill="black" r="12.885906219482422" /><circle cx="274.0145263671875" cy="511.1939392089844" fill="black" r="12.177797317504883" /><circle cx="555.4775390625" cy="506.4438171386719" fill="black" r="8.572212219238281" /><circle cx="166.0" cy="504.79998779296875" fill="black" r="8.440469741821289" /><circle cx="414.6153869628906" cy="508.73077392578125" fill="black" r="12.95228099822998" /><circle cx="588.6666870117188" cy="497.6666564941406" fill="black" r="6.871920108795166" /><circle cx="307.04205322265625" cy="502.27569580078125" fill="black" r="13.239206314086914" /><circle cx="447.5625" cy="499.875" fill="black" r="12.637624740600586" /><circle cx="199.0" cy="495.8999938964844" fill="black" r="10.344667434692383" /><circle cx="91.0" cy="489.0" fill="black" r="3.0000998973846436" /><circle cx="621.522705078125" cy="488.9090881347656" fill="black" r="4.652553081512451" /><circle cx="339.8270263671875" cy="493.2606506347656" fill="black" r="13.91411304473877" /><circle cx="480.61834716796875" cy="491.1213073730469" fill="black" r="12.13715648651123" /><circle cx="232.08450317382812" cy="486.9929504394531" fill="black" r="12.041988372802734" /><circle cx="124.27777862548828" cy="480.72222900390625" fill="black" r="6.842679977416992" /><circle cx="513.727294921875" cy="482.2818298339844" fill="black" r="11.353489875793457" /><circle cx="373.0" cy="484.71429443359375" fill="black" r="14.285822868347168" /><circle cx="265.0" cy="478.0" fill="black" r="13.153046607971191" /><circle cx="546.75" cy="473.25" fill="black" r="10.277502059936523" /><circle cx="157.0483856201172" cy="471.741943359375" fill="black" r="9.258296966552734" /><circle cx="406.0869445800781" cy="475.7391357421875" fill="black" r="14.59126091003418" /><circle cx="579.6621704101562" cy="464.8243103027344" fill="black" r="8.849237442016602" /><circle cx="298.1019287109375" cy="469.22088623046875" fill="black" r="14.3200044631958" /><circle cx="438.6955261230469" cy="466.96435546875" fill="black" r="14.225666046142578" /><circle cx="82.08333587646484" cy="456.6666564941406" fill="black" r="4.137486934661865" /><circle cx="190.33966064453125" cy="463.052734375" fill="black" r="11.072543144226074" /><circle cx="612.6416015625" cy="455.8628234863281" fill="black" r="6.99606990814209" /><circle cx="331.362060546875" cy="460.5" fill="black" r="15.050657272338867" /><circle cx="472.0" cy="458.0" fill="black" r="13.601571083068848" /><circle cx="646.0" cy="446.5" fill="black" r="3.6401548385620117" /><circle cx="223.4530792236328" cy="454.1686096191406" fill="black" r="12.675103187561035" /><circle cx="115.5" cy="447.80767822265625" fill="black" r="7.347148895263672" /><circle cx="504.8488464355469" cy="449.3023376464844" fill="black" r="12.867871284484863" /><circle cx="364.0" cy="451.52630615234375" fill="black" r="15.668139457702637" /><circle cx="256.5609130859375" cy="445.0736083984375" fill="black" r="14.160004615783691" /><circle cx="148.38136291503906" cy="438.8728942871094" fill="black" r="9.619585990905762" /><circle cx="537.6497192382812" cy="440.4640808105469" fill="black" r="11.614770889282227" /><circle cx="397.0" cy="442.6666564941406" fill="black" r="15.846576690673828" /><circle cx="570.9347534179688" cy="431.5608825683594" fill="black" r="10.25964069366455" /><circle cx="289.3157958984375" cy="436.3947448730469" fill="black" r="15.327840805053711" /><circle cx="73.5" cy="423.5" fill="black" r="4.301262855529785" /><circle cx="429.76678466796875" cy="433.7214050292969" fill="black" r="15.624002456665039" /><circle cx="181.5531005859375" cy="429.9336242675781" fill="black" r="11.496563911437988" /><circle cx="603.5946044921875" cy="422.8040466308594" fill="black" r="8.596917152404785" /><circle cx="462.8935546875" cy="425.2370300292969" fill="black" r="14.971857070922852" /><circle cx="636.61865234375" cy="413.99151611328125" fill="black" r="6.1653151512146" /><circle cx="214.5" cy="421.1153869628906" fill="black" r="13.351631164550781" /><circle cx="106.4117660522461" cy="414.8823547363281" fill="black" r="7.647158622741699" /><circle cx="495.7449035644531" cy="416.48980712890625" fill="black" r="13.877079963684082" /><circle cx="247.4596710205078" cy="412.2177429199219" fill="black" r="14.510970115661621" /><circle cx="139.6447296142578" cy="405.8157958984375" fill="black" r="9.833036422729492" /><circle cx="528.932861328125" cy="407.58209228515625" fill="black" r="12.588874816894531" /><circle cx="561.835693359375" cy="398.6571350097656" fill="black" r="11.1932954788208" /><circle cx="280.62738037109375" cy="403.37896728515625" fill="black" r="15.988609313964844" /><circle cx="64.5" cy="391.0" fill="black" r="4.031229019165039" /><circle cx="172.53895568847656" cy="396.8766174316406" fill="black" r="11.785823822021484" /><circle cx="594.861083984375" cy="390.0" fill="black" r="9.355300903320312" /><circle cx="454.1299133300781" cy="392.1015625" fill="black" r="15.656222343444824" /><circle cx="205.5957489013672" cy="388.2765808105469" fill="black" r="13.528055191040039" /><circle cx="97.75" cy="381.75" fill="black" r="7.458317279815674" /><circle cx="628.0" cy="381.0" fill="black" r="7.280210018157959" /><circle cx="487.0" cy="383.5" fill="black" r="14.705541610717773" /><circle cx="661.625" cy="372.5" fill="black" r="4.403578758239746" /><circle cx="238.6724090576172" cy="379.5" fill="black" r="14.748993873596191" /><circle cx="130.7105255126953" cy="373.0" fill="black" r="9.761981964111328" /><circle cx="519.944091796875" cy="374.5798645019531" fill="black" r="13.560302734375" /><circle cx="553.0882568359375" cy="365.73529052734375" fill="black" r="11.934514999389648" /><circle cx="55.5" cy="357.0" fill="black" r="3.0414812564849854" /><circle cx="163.8120880126953" cy="364.02349853515625" fill="black" r="11.53654670715332" /><circle cx="586.1629028320312" cy="357.2303466796875" fill="black" r="10.269024848937988" /><circle cx="197.0" cy="355.23077392578125" fill="black" r="13.381174087524414" /><circle cx="88.92857360839844" cy="348.78570556640625" fill="black" r="6.869882106781006" /><circle cx="619.265625" cy="348.390625" fill="black" r="8.28061294555664" /><circle cx="478.02117919921875" cy="350.5699157714844" fill="black" r="15.278837203979492" /><circle cx="652.2999877929688" cy="339.5" fill="black" r="5.323643684387207" /><circle cx="230.17108154296875" cy="346.5477600097656" fill="black" r="14.708949089050293" /><circle cx="121.994384765625" cy="340.14044189453125" fill="black" r="9.355606079101562" /><circle cx="510.95843505859375" cy="341.7305603027344" fill="black" r="13.79501724243164" /><circle cx="544.0" cy="333.0" fill="black" r="12.649210929870605" /><circle cx="154.7034912109375" cy="331.1278991699219" fill="black" r="11.203272819519043" /><circle cx="577.211181640625" cy="324.10345458984375" fill="black" r="10.614209175109863" /><circle cx="188.2821807861328" cy="322.4901123046875" fill="black" r="12.555830001831055" /><circle cx="79.78571319580078" cy="316.0238037109375" fill="black" r="6.0277180671691895" /><circle cx="610.3333129882812" cy="315.3333435058594" fill="black" r="8.74971866607666" /><circle cx="469.1571350097656" cy="317.9190368652344" fill="black" r="15.655698776245117" /><circle cx="643.3181762695312" cy="306.68182373046875" fill="black" r="5.956214427947998" /><circle cx="221.13829040527344" cy="313.7127685546875" fill="black" r="14.246251106262207" /><circle cx="112.96551513671875" cy="307.2069091796875" fill="black" r="8.455423355102539" /><circle cx="502.2372131347656" cy="308.8795471191406" fill="black" r="14.158151626586914" /><circle cx="254.14285278320312" cy="305.0" fill="black" r="15.386289596557617" /><circle cx="535.5" cy="300.1400146484375" fill="black" r="12.947299003601074" /><circle cx="146.10000610351562" cy="298.17999267578125" fill="black" r="10.29778003692627" /><circle cx="568.441162109375" cy="291.2794189453125" fill="black" r="10.817137718200684" /><circle cx="71.0" cy="283.0" fill="black" r="4.472236156463623" /><circle cx="179.25961303710938" cy="289.6634521484375" fill="black" r="12.110478401184082" /><circle cx="601.5" cy="282.5" fill="black" r="8.860122680664062" /><circle cx="460.3221740722656" cy="284.84100341796875" fill="black" r="15.21664810180664" /><circle cx="634.5" cy="273.5" fill="black" r="6.041623115539551" /><circle cx="212.5" cy="280.8333435058594" fill="black" r="13.176253318786621" /><circle cx="104.28787994384766" cy="274.07574462890625" fill="black" r="7.436558246612549" /><circle cx="493.3777160644531" cy="275.7838439941406" fill="black" r="14.034279823303223" /><circle cx="245.07086181640625" cy="271.96063232421875" fill="black" r="14.50311279296875" /><circle cx="137.17391967773438" cy="265.2173767089844" fill="black" r="9.254420280456543" /><circle cx="526.4916381835938" cy="266.9666748046875" fill="black" r="12.534462928771973" /><circle cx="354.5" cy="348.0" fill="black" r="107.5512466430664" /><circle cx="559.4000244140625" cy="258.3999938964844" fill="black" r="10.720151901245117" /><circle cx="278.2368469238281" cy="263.2368469238281" fill="black" r="15.359192848205566" /><circle cx="170.2919464111328" cy="256.7315368652344" fill="black" r="10.91755199432373" /><circle cx="418.6526794433594" cy="260.7595520019531" fill="black" r="15.817140579223633" /><circle cx="592.5" cy="249.5" fill="black" r="8.860122680664062" /><circle cx="311.1666564941406" cy="254.61111450195312" fill="black" r="15.859251022338867" /><circle cx="451.6323547363281" cy="251.89706420898438" fill="black" r="14.698992729187012" /><circle cx="203.25" cy="248.0" fill="black" r="12.311172485351562" /><circle cx="95.27906799316406" cy="241.2906951904297" fill="black" r="5.754739761352539" /><circle cx="625.6818237304688" cy="240.68182373046875" fill="black" r="5.956204414367676" /><circle cx="484.6417236328125" cy="243.16929626464844" fill="black" r="13.533370018005371" /><circle cx="344.1030578613281" cy="245.614501953125" fill="black" r="15.919946670532227" /><circle cx="236.4036102294922" cy="238.70481872558594" fill="black" r="13.126343727111816" /><circle cx="128.3297882080078" cy="232.37234497070312" fill="black" r="7.841114044189453" /><circle cx="517.6642456054688" cy="234.27737426757812" fill="black" r="12.116009712219238" /><circle cx="376.978271484375" cy="236.7391357421875" fill="black" r="15.557247161865234" /><circle cx="269.2852478027344" cy="230.01007080078125" fill="black" r="14.1915283203125" /><circle cx="550.7886352539062" cy="225.1138153076172" fill="black" r="10.2720308303833" /><circle cx="161.5263214111328" cy="223.7894744873047" fill="black" r="9.55080509185791" /><circle cx="409.6851806640625" cy="227.90740966796875" fill="black" r="14.888463020324707" /><circle cx="583.9285888671875" cy="216.35714721679688" fill="black" r="8.357534408569336" /><circle cx="302.2791442871094" cy="221.549072265625" fill="black" r="14.507515907287598" /><circle cx="87.27777862548828" cy="208.44444274902344" fill="black" r="2.7583634853363037" /><circle cx="442.73333740234375" cy="218.85000610351562" fill="black" r="13.900712013244629" /><circle cx="194.44737243652344" cy="214.8157958984375" fill="black" r="10.921942710876465" /><circle cx="616.9117431640625" cy="207.61764526367188" fill="black" r="5.459147930145264" /><circle cx="475.84246826171875" cy="210.2123260498047" fill="black" r="12.866694450378418" /><circle cx="335.25" cy="212.55555725097656" fill="black" r="14.660480499267578" /><circle cx="227.5" cy="206.0" fill="black" r="11.926960945129395" /><circle cx="119.5" cy="199.5" fill="black" r="6.041623115539551" /><circle cx="508.9059143066406" cy="201.4298858642578" fill="black" r="11.204744338989258" /><circle cx="368.109619140625" cy="203.88502502441406" fill="black" r="14.267362594604492" /><circle cx="260.4677429199219" cy="197.27420043945312" fill="black" r="12.558502197265625" /><circle cx="542.0420532226562" cy="192.46728515625" fill="black" r="9.60566520690918" /><circle cx="152.5" cy="190.5" fill="black" r="7.905794143676758" /><circle cx="401.1912841796875" cy="194.9698028564453" fill="black" r="13.739173889160156" /><circle cx="575.03955078125" cy="183.5647430419922" fill="black" r="7.50768518447876" /><circle cx="293.5" cy="188.5" fill="black" r="12.980854988098145" /><circle cx="434.1226501464844" cy="186.0660400390625" fill="black" r="12.861492156982422" /><circle cx="185.5970916748047" cy="181.73301696777344" fill="black" r="9.372686386108398" /><circle cx="608.0" cy="174.6666717529297" fill="black" r="4.333435535430908" /><circle cx="326.5" cy="179.68182373046875" fill="black" r="13.051971435546875" /><circle cx="467.208740234375" cy="176.95631408691406" fill="black" r="11.593825340270996" /><circle cx="218.5" cy="172.86842346191406" fill="black" r="10.180261611938477" /><circle cx="111.0" cy="165.5" fill="black" r="2.6926822662353516" /><circle cx="500.1666564941406" cy="168.1666717529297" fill="black" r="10.233495712280273" /><circle cx="359.3823547363281" cy="170.85293579101562" fill="black" r="12.799118041992188" /><circle cx="251.56832885742188" cy="164.38198852539062" fill="black" r="10.978191375732422" /><circle cx="143.6999969482422" cy="157.5" fill="black" r="5.544468879699707" /><circle cx="533.1764526367188" cy="159.35293579101562" fill="black" r="8.54977035522461" /><circle cx="392.1176452636719" cy="161.88235473632812" fill="black" r="12.370538711547852" /><circle cx="566.0300903320312" cy="150.58433532714844" fill="black" r="6.176663875579834" /><circle cx="284.4032287597656" cy="155.27420043945312" fill="black" r="11.426401138305664" /><circle cx="425.2197265625" cy="153.08131408691406" fill="black" r="11.52708625793457" /><circle cx="176.62843322753906" cy="148.92201232910156" fill="black" r="6.950596332550049" /><circle cx="599.5" cy="141.5" fill="black" r="1.581238865852356" /><circle cx="317.5234375" cy="146.609375" fill="black" r="11.402745246887207" /><circle cx="458.29998779296875" cy="144.10000610351562" fill="black" r="10.183433532714844" /><circle cx="209.7440948486328" cy="139.6968536376953" fill="black" r="8.207059860229492" /><circle cx="491.21429443359375" cy="135.3095245361328" fill="black" r="8.856019020080566" /><circle cx="350.5" cy="137.89999389648438" fill="black" r="10.948161125183105" /><circle cx="242.5" cy="131.05555725097656" fill="black" r="9.06944751739502" /><circle cx="524.3488159179688" cy="126.44186401367188" fill="black" r="6.966188907623291" /><circle cx="383.4246520996094" cy="128.9178009033203" fill="black" r="10.63067626953125" /><circle cx="557.6818237304688" cy="117.31818389892578" fill="black" r="4.047850608825684" /><circle cx="275.5" cy="122.5" fill="black" r="9.300638198852539" /><circle cx="167.8000030517578" cy="115.80000305175781" fill="black" r="3.8833932876586914" /><circle cx="416.340576171875" cy="119.94927215576172" fill="black" r="9.698585510253906" /><circle cx="308.4850769042969" cy="113.75373077392578" fill="black" r="9.515073776245117" /><circle cx="449.58721923828125" cy="111.30232238769531" fill="black" r="8.722230911254883" /><circle cx="200.75" cy="107.0" fill="black" r="5.6181511878967285" /><circle cx="482.5" cy="102.5" fill="black" r="6.96429443359375" /><circle cx="341.72222900390625" cy="104.72222137451172" fill="black" r="9.317874908447266" /><circle cx="233.87930297851562" cy="98.25862121582031" fill="black" r="6.534790515899658" /><circle cx="515.5" cy="93.5" fill="black" r="4.743516445159912" /><circle cx="374.70001220703125" cy="95.92857360839844" fill="black" r="8.749504089355469" /><circle cx="266.9193420410156" cy="89.66129302978516" fill="black" r="6.978779315948486" /><circle cx="407.6666564941406" cy="87.0" fill="black" r="7.601279258728027" /><circle cx="299.73468017578125" cy="80.68367004394531" fill="black" r="6.8159871101379395" /><circle cx="440.5722961425781" cy="78.03012084960938" fill="black" r="6.500569820404053" /><circle cx="473.6000061035156" cy="69.4000015258789" fill="black" r="4.44081449508667" /><circle cx="332.76470947265625" cy="71.61764526367188" fill="black" r="6.762563705444336" /><circle cx="365.6111145019531" cy="62.77777862548828" fill="black" r="6.252259731292725" /><circle cx="258.0" cy="56.0" fill="black" r="3.0000998973846436" /><circle cx="398.8636474609375" cy="54.181819915771484" fill="black" r="5.005252838134766" /><circle cx="291.3571472167969" cy="47.35714340209961" fill="black" r="2.7200145721435547" /><circle cx="431.5" cy="44.5" fill="black" r="2.549609661102295" /><circle cx="324.5" cy="38.16666793823242" fill="black" r="2.63533091545105" /></svg>