<?xml version="1.0" standalone="no"?>
<!DOCTYPE svg PUBLIC "-//W3C//DTD SVG 20010904//EN"
 "http://www.w3.org/TR/2001/REC-SVG-20010904/DTD/svg10.dtd">
<svg version="1.0" xmlns="http://www.w3.org/2000/svg"
 width="1280.000000pt" height="1280.000000pt" viewBox="0 0 1280.000000 1280.000000"
 preserveAspectRatio="xMidYMid meet">
<g transform="translate(0.000000,1280.000000) scale(0.100000,-0.100000)"
fill="#000000" stroke="none">
<path d="M5875 11624 c-125 -91 -238 -172 -251 -180 -21 -14 -41 -9 -304 76
-155 50 -293 90 -308 88 -20 -2 -74 -55 -225 -223 -109 -121 -204 -223 -210
-226 -7 -3 -142 7 -302 24 -159 17 -301 28 -315 24 -20 -5 -54 -57 -175 -267
-93 -163 -158 -265 -170 -269 -11 -4 -148 -20 -304 -36 -250 -25 -287 -31
-306 -49 -15 -14 -50 -108 -110 -296 -48 -151 -93 -280 -99 -286 -6 -6 -135
-51 -286 -99 -189 -60 -281 -95 -295 -110 -18 -18 -24 -56 -48 -291 -16 -148
-30 -284 -34 -301 -5 -30 -21 -42 -269 -185 -213 -123 -266 -158 -271 -178 -4
-14 7 -155 24 -315 17 -159 28 -295 24 -301 -3 -6 -105 -101 -226 -211 -166
-150 -221 -205 -223 -225 -2 -14 38 -153 88 -307 86 -265 91 -283 77 -305 -9
-13 -90 -126 -181 -251 -91 -125 -166 -234 -166 -243 0 -8 66 -129 146 -268
80 -140 148 -263 151 -273 3 -12 -43 -127 -116 -291 -67 -149 -121 -279 -121
-289 0 -10 92 -120 205 -245 113 -126 205 -233 205 -239 0 -5 -28 -142 -62
-304 -46 -219 -59 -299 -52 -311 6 -9 112 -90 235 -179 123 -90 234 -174 246
-189 23 -25 23 -28 23 -328 0 -231 3 -306 12 -314 7 -5 132 -63 278 -127 146
-65 270 -122 276 -129 7 -6 37 -132 68 -281 32 -148 62 -284 67 -302 13 -40 5
-37 344 -108 149 -31 275 -62 281 -68 6 -7 61 -127 123 -267 62 -140 119 -265
127 -278 14 -22 14 -22 312 -22 216 0 304 -4 321 -13 14 -6 101 -117 195 -246
94 -129 179 -239 188 -245 12 -7 91 6 310 52 161 34 298 62 304 62 6 0 114
-92 239 -205 125 -113 235 -205 245 -205 10 0 139 54 287 120 147 66 275 120
284 120 9 0 132 -67 275 -150 142 -82 266 -150 274 -150 9 0 127 81 264 180
136 99 252 180 256 180 4 0 132 -41 285 -91 152 -49 288 -89 303 -87 20 2 74
55 225 223 109 121 204 223 210 226 7 4 143 -7 303 -24 160 -16 302 -27 315
-24 19 5 56 61 174 268 94 163 158 264 170 268 11 4 146 20 300 36 174 17 288
33 302 41 18 11 42 74 114 297 50 155 97 287 103 293 6 7 138 53 292 103 155
50 287 98 295 107 8 10 25 122 45 317 25 236 36 304 48 313 9 6 129 76 266
155 202 116 252 149 257 169 4 14 -7 156 -24 315 -17 160 -28 295 -24 302 3 6
105 101 226 210 167 151 221 205 223 225 2 14 -38 153 -88 307 -91 280 -92
282 -74 309 10 15 89 126 177 246 88 121 162 228 164 237 3 11 -54 122 -146
281 -83 145 -151 269 -151 277 0 7 54 135 120 283 66 149 120 278 120 288 0
10 -87 114 -192 232 -106 118 -199 222 -207 231 -12 15 -6 56 50 318 47 224
60 305 53 317 -6 9 -116 94 -245 188 -129 94 -240 181 -246 195 -9 17 -13 105
-13 321 0 298 0 298 -22 312 -13 8 -138 65 -278 127 -140 62 -260 117 -266
123 -7 6 -37 133 -68 281 -71 338 -69 331 -109 344 -18 6 -153 36 -302 67
-148 31 -275 61 -281 68 -6 6 -61 126 -123 266 -62 140 -119 265 -127 278 -14
22 -14 22 -312 22 -216 0 -304 4 -321 13 -14 6 -92 104 -173 217 -196 270
-205 280 -231 280 -12 0 -148 -27 -302 -60 -154 -33 -285 -60 -291 -60 -6 0
-113 92 -238 205 -126 113 -237 205 -247 205 -10 0 -139 -54 -287 -120 -148
-66 -275 -120 -283 -120 -8 0 -132 67 -274 150 -143 82 -267 150 -276 150 -9
0 -119 -75 -244 -166z"/>
</g>
</svg>
